<?xml version="1.0" encoding="UTF-8"?>
<svg xmlns="http://www.w3.org/2000/svg" viewBox="0 0 1600 1100" width="100%" height="100%" style="background:#FCFCF9; font-family:'Courier New', monospace, sans-serif;">
  <defs>
    <pattern id="asphalt" width="6" height="6" patternUnits="userSpaceOnUse">
      <circle cx="1.5" cy="1.5" r="0.5" fill="#333333"/>
      <circle cx="4.5" cy="4.5" r="0.5" fill="#555555"/>
    </pattern>
    <pattern id="hardcore" width="12" height="12" patternUnits="userSpaceOnUse">
      <polygon points="2,2 5,1 4,4" fill="#999990"/>
      <polygon points="8,8 11,7 9,10" fill="#AAAAA0"/>
    </pattern>
  </defs>

  <rect x="30" y="30" width="1540" height="1040" fill="none" stroke="#111111" stroke-width="1.5"/>
  <rect x="36" y="36" width="1528" height="1028" fill="none" stroke="#111111" stroke-width="0.5"/>

  <!-- Title Block -->
  <g transform="translate(1160, 48)">
    <rect x="0" y="0" width="390" height="120" fill="#FFFFFF" stroke="#111111" stroke-width="1"/>
    <text x="15" y="24" font-size="11" font-weight="bold" fill="#111111" letter-spacing="1">PROJECT: COOMBE FIELDS 33kV SUBSTATION</text>
    <text x="15" y="44" font-size="9" fill="#555550">DRAWING: HIGHWAY BELLMOUTH CONSTRUCTION &amp; ROAD SECTIONS</text>
    <text x="15" y="60" font-size="8" fill="#777770">DRAWING REF: DWG-02 / REV B | SCALE 1:100 &amp; 1:20</text>
    <text x="15" y="76" font-size="8" fill="#777770">CIVIL ENGINEERING &amp; HIGHWAYS ADOPTION PACKAGE</text>
    <line x1="0" y1="88" x2="390" y2="88" stroke="#111111" stroke-width="0.5"/>
    <text x="15" y="106" font-size="9" font-weight="bold" fill="#1C3B52">APPROVED FOR HIGHWAY CONSTRUCTION</text>
  </g>

  <!-- Bellmouth Splay Layout Plan (Left Side) -->
  <g transform="translate(80, 80)">
    <text x="20" y="20" font-size="12" font-weight="bold" fill="#111111" letter-spacing="1">BELLMOUTH ENTRANCE CONSTRUCTION PLAN (SCALE 1:100)</text>
    
    <!-- Coombe Fields Road Main Carriageway -->
    <path d="M 60,100 L 760,100" fill="none" stroke="#111111" stroke-width="3"/>
    <path d="M 60,180 L 760,180" fill="none" stroke="#111111" stroke-width="1.5" stroke-dasharray="12,6"/>
    <path d="M 60,260 L 760,260" fill="none" stroke="#111111" stroke-width="3"/>
    <text x="260" y="145" font-size="12" font-weight="bold" fill="#777770" letter-spacing="2">COOMBE FIELDS ROAD CARRIAGEWAY</text>

    <!-- Entrance Radii 15m -->
    <path d="M 280,260 C 350,260 380,300 400,440" fill="none" stroke="#1C3B52" stroke-width="2.5"/>
    <path d="M 580,260 C 510,260 480,300 460,440" fill="none" stroke="#1C3B52" stroke-width="2.5"/>

    <!-- Access Road to Substation -->
    <rect x="400" y="440" width="60" height="200" fill="url(#asphalt)" stroke="#111111" stroke-width="1.5"/>

    <!-- Annotations -->
    <g transform="translate(100, 310)">
      <line x1="0" y1="0" x2="260" y2="-20" stroke="#1C3B52" stroke-width="1"/>
      <circle cx="260" cy="-20" r="3" fill="#1C3B52"/>
      <text x="0" y="-8" font-size="8.5" font-weight="bold" fill="#1C3B52">INSTALL 125x255 HB2 &amp; 125x150BN</text>
      <text x="0" y="6" font-size="8" fill="#555550">EXTERNAL RADIUS DROPPER KERBS (LH &amp; RH)</text>
      <text x="0" y="18" font-size="8" fill="#555550">15m RADIUS TRANSITIONS BOTH SIDES ENTRANCE SPLAY</text>
    </g>

    <!-- Protected Cables Note -->
    <g transform="translate(80, 480)">
      <rect x="0" y="0" width="280" height="60" fill="#FFF4F2" stroke="#C51B18" stroke-width="1"/>
      <text x="12" y="20" font-size="8.5" font-weight="bold" fill="#C51B18">2No. EXISTING 33kV CABLES &amp; PILOTS</text>
      <text x="12" y="34" font-size="8" fill="#555550">To be protected with concrete split-ducts</text>
      <text x="12" y="48" font-size="8" fill="#555550">during bellmouth &amp; civil works phase</text>
    </g>

    <!-- Gates & Palisade -->
    <line x1="370" y1="520" x2="490" y2="520" stroke="#111111" stroke-width="2" stroke-dasharray="4,2"/>
    <text x="350" y="540" font-size="8.5" font-weight="bold" fill="#111111">PROPOSED PALISADE ENTRANCE GATES (2400mm)</text>
  </g>

  <!-- Civil Cross Sections (Right Side) -->
  <g transform="translate(900, 200)">
    <text x="0" y="0" font-size="11" font-weight="bold" fill="#111111" letter-spacing="1">ROAD SECTION B-B: CARRIAGEWAY BUILD-UP</text>
    <text x="0" y="16" font-size="8" fill="#777770">SCALE 1:20 (DETAIL)</text>

    <!-- Section Profile Drawing -->
    <g transform="translate(0, 40)">
      <!-- 40mm Wearing Course -->
      <rect x="0" y="0" width="560" height="24" fill="#222222" stroke="#111111" stroke-width="0.8"/>
      <text x="575" y="16" font-size="8" font-weight="bold" fill="#111111">40mm Dense Surface Course (14mm nominal aggregate)</text>

      <!-- 70mm Dense Bitumen Macadam Binder -->
      <rect x="0" y="24" width="560" height="42" fill="#555555" stroke="#111111" stroke-width="0.8"/>
      <text x="575" y="48" font-size="8" fill="#333333">70mm Dense Bitumen Macadam Binder Course (28mm agg)</text>

      <!-- 130mm Roadbase -->
      <rect x="0" y="66" width="560" height="78" fill="#888880" stroke="#111111" stroke-width="0.8"/>
      <text x="575" y="110" font-size="8" fill="#555550">130mm Dense Bitumen Macadam Roadbase</text>

      <!-- 150mm Type 1 Sub-base -->
      <rect x="0" y="144" width="560" height="90" fill="url(#hardcore)" stroke="#111111" stroke-width="0.8"/>
      <text x="575" y="195" font-size="8" fill="#555550">150mm Type 1 Crushed Limestone Sub-base</text>

      <!-- Capping Layer -->
      <rect x="0" y="234" width="560" height="90" fill="#E8E8E2" stroke="#111111" stroke-width="0.8"/>
      <text x="575" y="280" font-size="8" fill="#777770">Min 450mm Total Construction Depth on Prepared Subgrade</text>
    </g>

    <!-- Kerb Detail -->
    <g transform="translate(0, 420)">
      <text x="0" y="0" font-size="11" font-weight="bold" fill="#111111" letter-spacing="1">KERB INSTALLATION SPECIFICATION</text>
      <!-- Half-battered kerb cross section -->
      <polygon points="40,80 40,20 60,20 75,45 75,80" fill="#E0E0DB" stroke="#111111" stroke-width="1.5"/>
      <!-- Concrete bedding & backing -->
      <polygon points="10,110 10,80 40,80 40,50 75,50 90,80 110,80 110,110" fill="#C5C5C0" stroke="#111111" stroke-width="1"/>
      <text x="130" y="35" font-size="8.5" font-weight="bold" fill="#111111">125x255 HB2 Half Battered Precast Concrete Kerb</text>
      <text x="130" y="55" font-size="8" fill="#555550">Bedded on 100mm ST4 concrete bedding</text>
      <text x="130" y="70" font-size="8" fill="#555550">with continuous concrete haunching to within 25mm of top</text>
    </g>
  </g>
</svg>